<?xml version="1.0" standalone="yes"?>

<svg version="1.1" viewBox="0.0 0.0 470.20734908136484 199.91076115485563" fill="none" stroke="none" stroke-linecap="square" stroke-miterlimit="10" xmlns="http://www.w3.org/2000/svg" xmlns:xlink="http://www.w3.org/1999/xlink"><clipPath id="p.0"><path d="m0 0l470.20734 0l0 199.91077l-470.20734 0l0 -199.91077z" clip-rule="nonzero"></path></clipPath><g clip-path="url(#p.0)"><path fill="#000000" fill-opacity="0.0" d="m0 0l470.20734 0l0 199.91077l-470.20734 0z" fill-rule="nonzero"></path><path fill="#000000" fill-opacity="0.0" d="m49.984253 11.569553l408.8504 0l0 163.62206l-408.8504 0z" fill-rule="nonzero"></path><path fill="#2e8b57" d="m171.62488 68.69956l-4.21875 0.375q-3.328125 0.265625 -4.234375 4.609375l-16.125 69.76562l-17.53125 0l-13.4375 -56.953117l-0.390625 0l-13.0625 56.953117l-18.046875 0l-17.65625 -73.85937l-7.296875 -0.375l0 -10.890629l31.75 0l0 10.375004l-4.234375 0.375q-3.96875 0.390625 -3.96875 3.328125q0 0.515625 0.125 1.15625l11.140625 49.40625l0.515625 0l13.3125 -57.859375l16.515625 0l13.8125 58.125l0.265625 0l10.875 -53.515625l-6.90625 -0.5l0 -10.890629l28.796875 0l0 10.375004zm62.342514 12.921875l0 47.624992q0 2.046875 0.703125 2.8125q0.703125 0.765625 2.484375 0.890625l4.09375 0.265625l0 10.234375l-20.34375 0l0 -7.421875l-0.390625 -0.125q-6.390625 9.203125 -17.53125 9.203125q-13.0625 0 -19.328125 -8.3125q-6.265625 -8.3125 -6.265625 -22.781242q0 -17.40625 8.4375 -27.125q8.453125 -9.734375 25.34375 -9.734375q10.890625 0 22.796875 4.46875zm-14.859375 41.46875l0 -33.140625q-3.578125 -1.671875 -9.859375 -1.671875q-8.5625 0 -12.40625 6.921875q-3.84375 6.90625 -3.84375 18.296875q0 20.734367 13.3125 20.734367q5.640625 0 9.21875 -3.390625q3.578125 -3.3906174 3.578125 -7.7499924zm63.49788 -34.296875q-3.078125 -1.15625 -7.4375 -1.15625q-4.34375 0 -6.96875 1.984375q-2.625 1.984375 -2.625 4.875q0 2.875 0.953125 4.484375q0.96875 1.59375 3.015625 2.734375q3.203125 1.671875 7.671875 2.890625q4.484375 1.21875 6.65625 1.921875q2.1875 0.703125 5.453125 2.375q3.265625 1.65625 4.921875 3.578125q4.484375 4.734375 4.484375 12.15625q0 9.593742 -6.984375 15.031242q-6.96875 5.4375 -17.71875 5.4375q-15.625 0 -23.562485 -3.953125l0 -17.796867l11.531235 -0.890625l0 6.1406174q0 5.625 10.75 5.625q10.75 0 10.75 -7.8124924q0 -2.8125 -1.859375 -4.59375q-1.859375 -1.796875 -3.65625 -2.4375q-1.78125 -0.640625 -4.28125 -1.28125q-2.484375 -0.640625 -4.859375 -1.28125q-2.375 -0.640625 -5.125 -1.71875q-2.75 -1.09375 -6.078125 -3.140625q-6.5312347 -4.234375 -6.5312347 -14.140625q0 -9.921875 7.0468597 -15.296875q7.046875 -5.375 17.734375 -5.375q10.6875 0 21.171875 5.109375l0 15.359375l-11.515625 0.90625l0 -5.375q0 -3.203125 -2.9375 -4.359375zm38.399902 -23.296875l8.3125 0l0 13.5625l17.03125 0l-1.28125 10.765625l-15.75 0l0 33.65625q0 5.6249924 2.046875 7.8749924q2.046875 2.234375 6.328125 2.234375q4.296875 0 8.65625 -2.6875l3.828125 9.859375q-6.390625 4.484375 -16.25 4.484375q-5.765625 0 -9.734375 -1.484375q-3.96875 -1.46875 -5.890625 -3.25q-1.90625 -1.796875 -2.9375 -5.25q-1.015625 -3.453125 -1.15625 -5.4375q-0.125 -1.9843674 -0.125 -5.8281174l0 -34.171875l-9.078125 0l1.28125 -9.34375q6.015625 -0.515625 9.078125 -4.296875q3.078125 -3.78125 5.640625 -10.6875zm81.14664 75.51562l0 -9.71875q-7.046875 9.984375 -20.734375 9.984375q-19.84375 0 -19.84375 -22.140617l0 -25.734375q0 -3.453125 -3.203125 -3.578125l-4.09375 -0.265625l0 -10.5l22.53125 0l0 36.75q0 6.78125 1.921875 10.234375q1.921875 3.4531174 7.9375 3.4531174q6.015625 0 9.65625 -3.7031174q3.65625 -3.71875 3.65625 -8.96875l0 -23.171875q0 -2.171875 -0.703125 -3.0q-0.703125 -0.828125 -2.5 -0.828125l-4.09375 -0.265625l0 -10.5l22.53125 0l0 61.953117q0 15.5 -7.5 22.65625q-7.484375 7.171875 -22.65625 7.171875q-15.15625 0 -23.609375 -4.21875l0 -17.796875l12.15625 -1.015625l0 6.140625q0 3.453125 3.203125 4.671875q3.203125 1.21875 8.828125 1.21875q16.515625 0 16.515625 -18.828125z" fill-rule="nonzero"></path></g></svg>

